<svg width="108" height="27" viewBox="0 0 108 27" fill="none" xmlns="http://www.w3.org/2000/svg">
<path d="M0.176 1.248C1.21867 1.08933 2.13667 0.987332 2.93 0.941998C3.746 0.873999 4.48267 0.84 5.14 0.84C7.316 0.84 9.06133 1.12333 10.376 1.69C11.7133 2.25666 12.6767 3.186 13.266 4.478C13.878 5.74733 14.184 7.42467 14.184 9.51C14.184 11.5727 13.878 13.2387 13.266 14.508C12.6767 15.7773 11.7133 16.7067 10.376 17.296C9.06133 17.8627 7.316 18.146 5.14 18.146C4.57333 18.146 4.018 18.1347 3.474 18.112C2.93 18.0667 2.43133 18.0213 1.978 17.976L3.406 14.236C3.746 14.2587 4.086 14.2927 4.426 14.338C4.78867 14.3833 5.16267 14.406 5.548 14.406C6.61333 14.406 7.46333 14.2473 8.098 13.93C8.73267 13.6127 9.186 13.0913 9.458 12.366C9.75267 11.6407 9.9 10.6887 9.9 9.51C9.9 8.33133 9.75267 7.39067 9.458 6.688C9.186 5.96267 8.73267 5.44133 8.098 5.124C7.46333 4.80667 6.61333 4.648 5.548 4.648C5.16267 4.648 4.77733 4.67067 4.392 4.716C4.02933 4.73867 3.70067 4.77267 3.406 4.818L4.528 3.662V26H0.176V1.248ZM23.5 26.34C21.0747 26.34 19.2953 25.7847 18.162 24.674C17.0513 23.5407 16.496 21.7727 16.496 19.37V1.18H20.712V18.928C20.712 20.2427 20.9273 21.1833 21.358 21.75C21.7887 22.294 22.5027 22.566 23.5 22.566C24.4973 22.566 25.2113 22.294 25.642 21.75C26.0727 21.1833 26.288 20.2427 26.288 18.928V1.18H30.504V19.37C30.504 21.7727 29.9373 23.5407 28.804 24.674C27.6933 25.7847 25.9253 26.34 23.5 26.34ZM33.938 1.248C34.9807 1.08933 35.8873 0.987332 36.658 0.941998C37.4513 0.873999 38.1993 0.84 38.902 0.84C41.078 0.84 42.8233 1.112 44.138 1.656C45.4753 2.17733 46.4387 3.02733 47.028 4.206C47.64 5.38467 47.946 6.93733 47.946 8.864C47.946 10.7907 47.64 12.3433 47.028 13.522C46.4387 14.7007 45.4753 15.562 44.138 16.106C42.8233 16.6273 41.078 16.888 38.902 16.888C38.3353 16.888 37.78 16.8767 37.236 16.854C36.692 16.8087 36.1933 16.7633 35.74 16.718L37.168 13.08C37.576 13.148 37.9613 13.1933 38.324 13.216C38.6867 13.2387 39.0153 13.25 39.31 13.25C40.398 13.25 41.248 13.114 41.86 12.842C42.4947 12.5473 42.948 12.094 43.22 11.482C43.5147 10.8473 43.662 10.0087 43.662 8.966C43.662 7.90067 43.5147 7.062 43.22 6.45C42.948 5.81533 42.4947 5.362 41.86 5.09C41.248 4.79533 40.398 4.648 39.31 4.648C39.0153 4.648 38.6867 4.65933 38.324 4.682C37.984 4.70467 37.5873 4.75 37.134 4.818L38.154 3.662V26H33.938V1.248ZM43.56 26L37.236 15.052H41.826L48.286 26H43.56ZM51.414 26V1.18H63.824V4.784H55.732V11.108H63.484V14.644H55.732V22.396H63.824V26H51.414Z" fill="white"/>
<path d="M75.554 11.754H72.052V26H69.264V11.754H67.02V9.646L69.264 9.476V6.858C69.264 5.18067 69.6493 3.85467 70.42 2.88C71.2133 1.88267 72.4373 1.384 74.092 1.384C74.5907 1.384 75.078 1.44067 75.554 1.554C76.03 1.64467 76.4607 1.76933 76.846 1.928L76.234 4.07C75.622 3.798 74.9987 3.662 74.364 3.662C72.8227 3.662 72.052 4.72733 72.052 6.858V9.476H75.554V11.754ZM81.6737 26.408C79.7017 26.408 78.7157 25.1613 78.7157 22.668V1.792H81.5037V22.872C81.5037 23.688 81.7644 24.096 82.2857 24.096C82.4897 24.096 82.6937 24.0733 82.8977 24.028L83.2717 26.136C82.8637 26.3173 82.3311 26.408 81.6737 26.408ZM88.8098 6.076C88.2658 6.076 87.8011 5.906 87.4158 5.566C87.0531 5.226 86.8718 4.79533 86.8718 4.274C86.8718 3.73 87.0531 3.29933 87.4158 2.982C87.8011 2.642 88.2658 2.472 88.8098 2.472C89.3538 2.472 89.8071 2.642 90.1698 2.982C90.5551 3.29933 90.7478 3.73 90.7478 4.274C90.7478 4.79533 90.5551 5.226 90.1698 5.566C89.8071 5.906 89.3538 6.076 88.8098 6.076ZM87.3818 26V9.476H90.1698V26H87.3818ZM93.4369 26L98.8429 17.364L93.8449 9.476H96.8709L99.0809 13.114C99.3303 13.5447 99.5909 13.998 99.8629 14.474C100.135 14.95 100.418 15.4147 100.713 15.868H100.849C101.076 15.4147 101.314 14.95 101.563 14.474C101.835 13.998 102.096 13.5447 102.345 13.114L104.351 9.476H107.275L102.277 17.67L107.649 26H104.623L102.209 22.158C101.914 21.6593 101.608 21.1607 101.291 20.662C100.996 20.1633 100.702 19.676 100.407 19.2H100.271C99.9763 19.676 99.6929 20.1633 99.4209 20.662C99.1489 21.138 98.8769 21.6367 98.6049 22.158L96.3609 26H93.4369Z" fill="#0466C8"/>
</svg>
